<svg id="Layer_1" data-name="Layer 1" xmlns="http://www.w3.org/2000/svg" viewBox="0 0 300 300"><title>black-vote-icons</title><g id="USA_Pin" data-name="USA + Pin"><path d="M235.0074,259.66c-3.2529,0-7.1382-1.3893-11.6211-4.1624-5.0339-3.1148-6.4889-7.095-7.8955-10.9448a28.4709,28.4709,0,0,0-6.4992-11.15c-3.5093-3.72-13.3733-3.4467-20.575-3.2419-1.6761.0463-3.2643,0.0905-4.7,0.0905a55.8338,55.8338,0,0,0-13.1451,2.4487,39.2388,39.2388,0,0,1-4.3547,1.5585c-2.9763.99-10.5149,3.5006-12.7871,4.8155-0.2467,1.4421-.3809,4.7573-0.4656,6.8449-0.2657,6.5615-.3461,8.5414-2.5085,9.6881-9.4283,5.0019-22.2164-2.3334-26.9672-7.372-0.2358-.249-0.51-0.5648-0.834-0.94a38.5624,38.5624,0,0,0-12.2932-9.6,17.0853,17.0853,0,0,1-7.26-6.8956c-1.3083-2.0618-2.4379-3.8423-6.722-6.1142-1.9353-1.026-4.9551-1.5789-7.8754-2.1146-3.4213-.6262-6.96-1.275-9.81-2.786a55.1,55.1,0,0,0-6.9143-2.3894c-11.1327-3.4219-27.9577-8.592-31.6528-20.85-1.1665-3.87-2.722-8.2838-4.3688-12.957-6.1884-17.5591-13.2027-37.4613-7.5793-49.3879,1.0856-2.647,9.4766-27.37,9.695-30.4611-0.0016-8.8205,3.2523-13.3245,9.67-13.3245,0.7134,0,2.34,0,6.0868,3.8121C57.8238,96.675,62.5371,98,69.3536,99.4459c0.0266,0.0054.1391,0.0323,0.1657,0.0377,1.8674,0.444,12.0079,2.8065,28.3337,5.7478a3.3124,3.3124,0,1,1-1.1931,6.5162c-16.5-2.9736-26.7988-5.3727-28.6961-5.8243-6.145-1.3041-11.7857-2.6826-17.126-5.6562a3.3633,3.3633,0,0,1-1.01-.485l-1.2643-.8946q-1.0041-.6612-1.9956-1.413a3.2589,3.2589,0,0,1-.2744-0.2328c-0.9242.4516-1.7457,1.9012-1.7457,6.56,0,4.4027-10.2188,32.9853-10.3215,33.2041-4.4715,9.4844,2.351,28.8434,7.8331,44.3978,1.6729,4.7465,3.2534,9.23,4.4634,13.2458,2.6753,8.8744,18.048,13.5983,27.2329,16.421a53.4956,53.4956,0,0,1,8.0852,2.8755c1.9353,1.026,4.9551,1.5789,7.8754,2.1146,3.4213,0.6262,6.96,1.275,9.81,2.786,5.8451,3.1,7.719,6.0528,9.2251,8.4271a10.7246,10.7246,0,0,0,4.7573,4.5827,45.308,45.308,0,0,1,14.2165,11.1313c0.2488,0.2888.458,0.5324,0.6389,0.7243,3.1936,3.3874,11.8873,8.328,17.6818,6.5723,0.11-1.2524.19-3.2042,0.2472-4.6312,0.2842-7.0066.4944-9.3971,1.9087-10.8963,1.7348-1.84,6.5063-3.65,15.89-6.776,1.4452-.4807,3.08-1.025,3.4876-1.1985,2.0592-1.0207,11.1261-3.1525,16.1372-3.1525,1.3784,0,2.903-.0431,4.5112-0.0884,8.9452-.2522,20.0757-0.5637,25.64,5.3393a34.9391,34.9391,0,0,1,7.9,13.4161c1.2942,3.5416,2.0749,5.6788,5.1512,7.5811,5.3034,3.2807,8.4568,3.5426,9.544,2.771,1.0611-.7534,1.6669-3.4855.671-7.91-0.677-1.6167-1.8071-3.8757-3.1062-6.471-6.4525-12.8945-10.6812-22.38-6.3031-27.022,1.392-1.4776,12.1-16.9394,15.78-24.7446,0.6808-1.4442.0858-4.91-.3923-7.6964-0.6226-3.6267-1.2105-7.0508-.3026-9.9414a31.0082,31.0082,0,0,1,6.3688-11.08c2.652-3.2646,4.5682-5.6238,4.5682-11.4406,0-1.9357,1.4007-4.3424,10.1547-15.6223,0.815-1.05,1.724-2.2213,2.08-2.7084,0.5873-1.89,1.2241-10.6139,1.2241-13.0163a55.1208,55.1208,0,0,0-.7574-5.4826c-5.1773,1.83-16.4931,7.2814-18.5881,9.3626a13.1457,13.1457,0,0,0-.5243,1.7675,9.37,9.37,0,0,1-2.0663,4.4491c-1.39,1.4722-3.41,1.5175-5.3642,1.5606-0.3564.0075-.8666,0.0194-1.2665,0.0463-0.0766.1444-.1527,0.2942-0.2162,0.4193a9.952,9.952,0,0,1-1.6012,2.4541c-2.8535,3.0253-7.105,2.7138-10.5236,2.4659a17.6214,17.6214,0,0,0-3.3295-.0571,20.8585,20.8585,0,0,0-1.2018,2.5576c-1.1812,2.8065-2.6509,6.3007-5.8646,8.0036a5.9586,5.9586,0,0,1-5.1686.3373c-4.2026-1.6986-6.1336-7.7718-8.1775-14.2008-0.4091-1.2858-.803-2.5274-1.1942-3.6321l-0.29-.832c-0.1489-.43-0.3227-0.9344-0.458-1.2675a20.7791,20.7791,0,0,0-2.2461-.0808,3.311,3.311,0,1,1,0-6.6218c5.763,0,7.3647,1.0336,9.02,5.8232l0.2744,0.7868c0.4124,1.1672.8291,2.4756,1.261,3.8326,0.89,2.799,2.6786,8.4239,4.082,9.8455,1.0263-.8029,1.8924-2.8626,2.6-4.5439a15.5419,15.5419,0,0,1,2.6177-4.7023c2.1858-2.3172,5.5723-2.07,8.5638-1.8516,1.787,0.13,4.4862.3266,5.16-.3869a6.6146,6.6146,0,0,0,.5129-0.9075,9.95,9.95,0,0,1,1.5979-2.4509c1.474-1.5628,3.7185-1.6134,5.6984-1.6576,0.251-.0054.5618-0.0119,0.8487-0.0237,0.088-.3029.1782-0.665,0.2488-0.9484a16.765,16.765,0,0,1,1.0633-3.2279c0.4227-.8967,1.4132-2.9973,12.6078-8.3991,3.2023-1.5445,10.9756-5.1388,13.9862-5.1388h0a3.7,3.7,0,0,1,3.4735,2.0672c0.9329,1.9766,1.8978,9.2365,1.8978,10.6344,0,0.12-.3809,12.7393-1.8984,15.9554-0.2336.4958-.4423,0.78-2.7921,3.8089-2.1559,2.7774-7.7423,9.9759-8.7725,12.0721-0.12,7.816-3.13,11.52-6.0417,15.1061a24.7344,24.7344,0,0,0-5.1936,8.8949c-0.4319,1.3742.0685,4.2885,0.51,6.86,0.7,4.0772,1.424,8.2935-.1413,11.6119-3.7087,7.8678-14.5485,23.822-16.8821,26.3882-1.1095,2.7483,5.0214,15,7.3376,19.63,1.4251,2.8475,2.6563,5.307,3.4153,7.1737a3.2871,3.2871,0,0,1,.1548.4861c1.6593,7.0486.5124,12.3933-3.229,15.05A9.0038,9.0038,0,0,1,235.0074,259.66ZM222.8115,132.027h0Zm15.3-5.2617h0Zm-37.1632-3.7528h0Z"/><path d="M149.8092,169.1467a3.3457,3.3457,0,0,1-2.7449-1.427c-0.1032-.1477-10.4274-14.9778-20.61-32.3839-13.88-23.7261-20.9184-40.8078-20.9184-50.7707a44.2731,44.2731,0,0,1,88.5462,0c0,9.9629-7.0382,27.0446-20.9184,50.7707-10.1824,17.4061-20.5066,32.2362-20.61,32.3839A3.3457,3.3457,0,0,1,149.8092,169.1467Zm0-122.1851a37.643,37.643,0,0,0-37.5967,37.6035c0,6.0323,3.4691,19.1553,19.9953,47.4113,6.9067,11.8081,13.8808,22.4177,17.6014,27.9478,3.7207-5.53,10.6947-16.14,17.6014-27.9478,16.5262-28.256,19.9953-41.379,19.9953-47.4113A37.643,37.643,0,0,0,149.8092,46.9616Z"/><path d="M149.8086,107.4193a22.3245,22.3245,0,1,1,22.356-22.3239A22.3653,22.3653,0,0,1,149.8086,107.4193Zm0-38.0271a15.7026,15.7026,0,1,0,15.68,15.7032A15.7091,15.7091,0,0,0,149.8086,69.3922Z"/></g></svg>